<?xml version="1.0" encoding="utf-8"?>
<!-- Generator: Adobe Illustrator 27.2.0, SVG Export Plug-In . SVG Version: 6.00 Build 0)  -->
<svg version="1.1" xmlns="http://www.w3.org/2000/svg" xmlns:xlink="http://www.w3.org/1999/xlink" x="0px" y="0px"
	 viewBox="0 0 1440 320" style="enable-background:new 0 0 1440 320;" xml:space="preserve">
<style type="text/css">
	.st0{fill:#E5D9F2;}
</style>
<g id="Layer_1">
	<path class="st0" d="M-223.8-234.5l38.9,60.2C-146-113-68.1,5.6,10.1-8.2s157-165.8,235.4-194.5c78.3-29.9,156.3,60.6,234.1,166
		c77.9,106.5,155.7,225.2,233.9,226.3C791.8,189,870.4,70.9,948.6,70.3c78.2,1.1,156,119.8,195,181.1l38.9,60.2l-0.3,90.2l-39.1-0.1
		c-39.1-0.1-117.3-0.4-195.6-0.7s-156.5-0.5-234.7-0.8c-78.2-0.3-156.5-0.5-234.7-0.8s-156.5-0.5-234.7-0.8
		C165.2,398.2,87,398,8.7,397.7s-156.5-0.5-195.6-0.7l-39.1-0.1L-223.8-234.5z"/>
	
		<image style="overflow:visible;" width="360" height="360" xlink:href="360_F_92174720_rFGWmVDsFkDu4aJ9M4u0cNgD8HImh6jP.jpg"  transform="matrix(0.6067 0 0 0.5561 1182.5005 40.8591)">
	</image>
</g>
<g id="Layer_2">
</g>
</svg>
